<svg xmlns="http://www.w3.org/2000/svg" viewBox="0 0 360 640"><rect width="360" height="640" fill="#0B1220"/><circle cx="180" cy="72" r="30" fill="#141C2B"/><path d="M132 128 Q180 105 228 128 L246 305 Q222 390 216 590 L188 590 L180 430 L172 590 L144 590 Q138 390 114 305 Z" fill="#141C2B" stroke="#1B263B" stroke-width="4"/><ellipse id="region_traps" data-muscle-id="mg_traps" cx="180" cy="132" rx="56" ry="30" fill="#1E3A8A"/><ellipse id="region_upper_back" data-muscle-id="mg_upper_back" cx="180" cy="175" rx="72" ry="44" fill="#2563EB"/><ellipse id="region_rhomboids" data-muscle-id="mg_rhomboids" cx="180" cy="185" rx="42" ry="35" fill="#60A5FA"/><ellipse id="region_lats" data-muscle-id="mg_lats" cx="180" cy="245" rx="88" ry="86" fill="#2563EB"/><ellipse id="region_rear_delts" data-muscle-id="mg_rear_delts" cx="120" cy="165" rx="24" ry="34" fill="#1E3A8A"/><ellipse id="region_erectors" data-muscle-id="mg_erectors" cx="180" cy="300" rx="26" ry="100" fill="#1E3A8A"/><ellipse id="region_glutes" data-muscle-id="mg_glutes" cx="180" cy="390" rx="65" ry="48" fill="#2563EB"/><ellipse id="region_abductors" data-muscle-id="mg_abductors" cx="128" cy="425" rx="18" ry="62" fill="#1E3A8A"/><ellipse id="region_hamstrings" data-muscle-id="mg_hamstrings" cx="180" cy="495" rx="60" ry="88" fill="#2563EB"/><ellipse id="region_calves_back" data-muscle-id="mg_calves" cx="180" cy="565" rx="52" ry="48" fill="#1E3A8A"/></svg>