<svg xmlns="http://www.w3.org/2000/svg" viewBox="0 0 360 640"><rect width="360" height="640" fill="#0B1220"/><circle cx="180" cy="72" r="30" fill="#141C2B"/><path d="M132 128 Q180 105 228 128 L246 305 Q222 390 216 590 L188 590 L180 430 L172 590 L144 590 Q138 390 114 305 Z" fill="#141C2B" stroke="#1B263B" stroke-width="4"/><ellipse id="region_chest_upper" data-muscle-id="mg_chest_upper" cx="180" cy="160" rx="55" ry="24" fill="#1E3A8A"/><ellipse id="region_chest_middle" data-muscle-id="mg_chest_middle" cx="180" cy="195" rx="65" ry="36" fill="#2563EB"/><ellipse id="region_front_delts" data-muscle-id="mg_front_delts" cx="122" cy="163" rx="24" ry="34" fill="#1E3A8A"/><ellipse id="region_side_delts" data-muscle-id="mg_side_delts" cx="238" cy="163" rx="24" ry="34" fill="#1E3A8A"/><ellipse id="region_biceps" data-muscle-id="mg_biceps" cx="92" cy="245" rx="18" ry="52" fill="#2563EB"/><ellipse id="region_triceps" data-muscle-id="mg_triceps" cx="268" cy="245" rx="18" ry="52" fill="#2563EB"/><ellipse id="region_abs" data-muscle-id="mg_abs" cx="180" cy="290" rx="36" ry="72" fill="#1E3A8A"/><ellipse id="region_obliques" data-muscle-id="mg_obliques" cx="132" cy="295" rx="20" ry="60" fill="#1E3A8A"/><ellipse id="region_quads" data-muscle-id="mg_quads" cx="160" cy="455" rx="28" ry="92" fill="#2563EB"/><ellipse id="region_quads_r" data-muscle-id="mg_quads" cx="200" cy="455" rx="28" ry="92" fill="#2563EB"/><ellipse id="region_adductors" data-muscle-id="mg_adductors" cx="180" cy="455" rx="18" ry="80" fill="#1E3A8A"/><ellipse id="region_calves_front" data-muscle-id="mg_calves" cx="180" cy="560" rx="52" ry="46" fill="#1E3A8A"/></svg>