<svg xmlns="http://www.w3.org/2000/svg" viewBox="0 0 420 760"><rect width="420" height="760" fill="#0B1220"/><circle cx="210" cy="70" r="34" fill="#243044"/><path d="M150 125 Q210 96 270 125 C300 170 308 250 292 330 C278 405 260 455 252 700 L220 700 L210 455 L200 700 L168 700 C160 455 142 405 128 330 C112 250 120 170 150 125 Z" fill="#111827" stroke="#334155" stroke-width="2"/><path id="region_chest_clavicular" data-muscle-id="mg_chest_clavicular" d="M155 145 C180 128 240 128 265 145 L248 174 C224 160 196 160 172 174 Z" fill="#FACC15"/><path id="region_chest_sternal" data-muscle-id="mg_chest_sternal" d="M152 175 C178 158 242 158 268 175 C258 220 230 238 210 238 C190 238 162 220 152 175 Z" fill="#FB923C"/><path id="region_chest_lower" data-muscle-id="mg_chest_lower" d="M166 220 C190 238 230 238 254 220 C248 248 230 263 210 263 C190 263 172 248 166 220 Z" fill="#F97316"/><ellipse id="region_front_delts_l" data-muscle-id="mg_front_delts" cx="132" cy="158" rx="27" ry="38" fill="#FACC15"/><ellipse id="region_side_delts_l" data-muscle-id="mg_side_delts" cx="116" cy="190" rx="22" ry="44" fill="#FB923C"/><path id="region_biceps_l" data-muscle-id="mg_biceps_long" d="M100 210 C82 260 84 335 108 360 C126 315 124 248 100 210 Z" fill="#FACC15"/><path id="region_abs_upper" data-muscle-id="mg_abs_upper" d="M182 270 H238 L230 350 H190 Z" fill="#FB923C"/><path id="region_abs_lower" data-muscle-id="mg_abs_lower" d="M190 352 H230 L224 430 H196 Z" fill="#F97316"/><path id="region_obliques_l" data-muscle-id="mg_obliques" d="M152 270 L184 270 L190 420 L158 390 Z" fill="#FACC15"/><path id="region_quad_rectus_l" data-muscle-id="mg_quads_rectus" d="M172 440 C198 475 198 610 178 675 C155 620 148 500 172 440 Z" fill="#FB923C"/><path id="region_quad_lateralis_l" data-muscle-id="mg_quads_vastus_lateralis" d="M145 455 C168 500 164 620 150 665 C125 600 122 500 145 455 Z" fill="#FACC15"/><path id="region_quad_medialis_l" data-muscle-id="mg_quads_vastus_medialis" d="M198 480 C214 535 205 630 188 682 C180 610 180 520 198 480 Z" fill="#F97316"/></svg>