<svg xmlns="http://www.w3.org/2000/svg" viewBox="0 0 420 760"><rect width="420" height="760" fill="#0B1220"/><circle cx="210" cy="70" r="34" fill="#243044"/><path d="M150 125 Q210 96 270 125 C300 170 308 250 292 330 C278 405 260 455 252 700 L220 700 L210 455 L200 700 L168 700 C160 455 142 405 128 330 C112 250 120 170 150 125 Z" fill="#111827" stroke="#334155" stroke-width="2"/><path id="region_traps_upper" data-muscle-id="mg_traps_upper" d="M160 125 C185 105 235 105 260 125 L235 170 H185 Z" fill="#FACC15"/><path id="region_traps_mid" data-muscle-id="mg_traps_mid" d="M170 170 H250 L235 245 H185 Z" fill="#FB923C"/><path id="region_rhomboids" data-muscle-id="mg_rhomboids" d="M180 180 H240 L230 230 H190 Z" fill="#EF4444"/><path id="region_lats_upper_l" data-muscle-id="mg_lats_upper" d="M125 170 C165 190 175 260 168 330 C130 305 112 235 125 170 Z" fill="#F97316"/><path id="region_lats_lower_l" data-muscle-id="mg_lats_lower" d="M135 300 C165 330 170 390 156 440 C130 400 118 340 135 300 Z" fill="#FB923C"/><path id="region_rear_delts_l" data-muscle-id="mg_rear_delts" d="M112 150 C140 135 162 150 170 178 C145 195 120 185 112 150 Z" fill="#FACC15"/><path id="region_triceps_l" data-muscle-id="mg_triceps_long" d="M96 210 C80 270 86 340 110 365 C128 305 122 245 96 210 Z" fill="#FACC15"/><path id="region_erectors_upper" data-muscle-id="mg_erectors_upper" d="M190 240 H230 L224 365 H196 Z" fill="#F97316"/><path id="region_erectors_lower" data-muscle-id="mg_erectors_lower" d="M196 365 H224 L218 455 H202 Z" fill="#EF4444"/><path id="region_glutes_maximus" data-muscle-id="mg_glutes_maximus" d="M150 430 C175 395 245 395 270 430 C260 490 230 520 210 520 C190 520 160 490 150 430 Z" fill="#F97316"/><path id="region_hamstrings_l" data-muscle-id="mg_hamstrings_biceps" d="M150 515 C175 540 172 660 154 710 C130 645 130 555 150 515 Z" fill="#FB923C"/></svg>